<?xml version="1.0" encoding="UTF-8" standalone="no"?>
<!-- Generator: Adobe Illustrator 16.0.0, SVG Export Plug-In . SVG Version: 6.00 Build 0)  -->

<svg
   xmlns:dc="http://purl.org/dc/elements/1.1/"
   xmlns:cc="http://creativecommons.org/ns#"
   xmlns:rdf="http://www.w3.org/1999/02/22-rdf-syntax-ns#"
   xmlns:svg="http://www.w3.org/2000/svg"
   xmlns="http://www.w3.org/2000/svg"
   xmlns:sodipodi="http://sodipodi.sourceforge.net/DTD/sodipodi-0.dtd"
   xmlns:inkscape="http://www.inkscape.org/namespaces/inkscape"
   version="1.1"
   id="图层_1"
   x="0px"
   y="0px"
   width="1254px"
   height="1048px"
   viewBox="0 0 1254 1048"
   enable-background="new 0 0 1254 1048"
   xml:space="preserve"
   inkscape:version="0.48.5 r10040"
   sodipodi:docname="coderbunker-modified.svg"><metadata
     id="metadata3131"><rdf:RDF><cc:Work
         rdf:about=""><dc:format>image/svg+xml</dc:format><dc:type
           rdf:resource="http://purl.org/dc/dcmitype/StillImage" /><dc:title></dc:title></cc:Work></rdf:RDF></metadata><defs
     id="defs3129" /><sodipodi:namedview
     pagecolor="#ffffff"
     bordercolor="#666666"
     borderopacity="1"
     objecttolerance="10"
     gridtolerance="10"
     guidetolerance="10"
     inkscape:pageopacity="0"
     inkscape:pageshadow="2"
     inkscape:window-width="1243"
     inkscape:window-height="755"
     id="namedview3127"
     showgrid="false"
     inkscape:zoom="0.22519084"
     inkscape:cx="642.54237"
     inkscape:cy="381.89831"
     inkscape:window-x="37"
     inkscape:window-y="1"
     inkscape:window-maximized="1"
     inkscape:current-layer="图层_1" /><g
     id="g3089"
     inkscape:export-filename="/Users/rngadam/hackacademy/prj/coderbunker/logos/coderbunker-door-only-transparent.png"
     inkscape:export-xdpi="90"
     inkscape:export-ydpi="90"><polygon
       style="fill:#b81c22"
       id="polygon3091"
       points="833.583,144.332 833.583,592.166 730.993,546.142 730.384,546.925 836.187,605.324 864.118,597.931 864.118,141.123 864.118,138.099 860.946,137.358 836.755,131.73 834.126,131.125 664.515,204.167 665.036,205.667 " /><polygon
       style="fill:#003557"
       id="polygon3093"
       points="660.985,514.15 660.985,204.674 493.325,144.332 493.325,581.553 " /><path
       style="fill:#b81c22"
       inkscape:connector-curvature="0"
       id="path3095"
       d="m 778.417,253.988 c -0.955,1.636 -2.658,2.783 -4.707,2.783 -3.049,0 -5.531,-2.469 -5.531,-5.529 0,-3.06 2.482,-5.529 5.531,-5.529 1.098,0 2.055,0.395 2.912,0.938 l 10.379,-3.543 v -19.303 l -3.27,-3.518 -19.723,8.047 -3.592,5.012 v 46.852 l 2.9,2 20.82,-8.504 2.863,-3.888 v -18.754 l -8.582,2.936 z" /><path
       style="fill:#b81c22"
       inkscape:connector-curvature="0"
       id="path3097"
       d="m 801.382,246.113 -14.381,4.924 v 1.297 l 14.381,-4.913 c 1.764,-0.604 2.727,-2.395 2.43,-4.171 -0.247,1.283 -1.098,2.418 -2.43,2.863 z" /><path
       style="fill:#b81c22"
       inkscape:connector-curvature="0"
       id="path3099"
       d="m 778.235,491.471 c -1.744,0.836 -3.867,0.756 -5.563,-0.438 -2.506,-1.753 -3.123,-5.196 -1.371,-7.702 1.754,-2.505 5.197,-3.122 7.715,-1.369 0.92,0.639 1.578,1.513 1.967,2.483 l 5.674,1.636 V 467.36 l -2.791,-4.739 -20.043,-6.801 -3.406,2.086 v 47.346 l 2.615,3.863 20.736,7.048 2.889,-1.457 V 493.9 l -8.422,-2.429 z" /><path
       style="fill:#b81c22"
       inkscape:connector-curvature="0"
       id="path3101"
       d="m 801.528,498.184 -15.672,-4.52 -0.752,1.061 15.684,4.508 c 1.803,0.519 3.604,-0.395 4.383,-2.023 -0.94,0.911 -2.297,1.356 -3.643,0.974 z" /></g><polygon
     style="fill:#b81c22"
     id="polygon3103"
     points="284.751,788.461 284.751,688.316 294.148,678.915 326.926,678.915 339.17,691.165 351.063,680.386 333.584,662.915 287.49,662.915 267.513,682.887 267.513,793.895 287.49,813.861 332.598,813.861 356.74,800.808 348.9,786.988 328.535,797.867 294.148,797.867 "
     inkscape:export-filename="/Users/rngadam/hackacademy/prj/coderbunker/logos/path3125.png"
     inkscape:export-xdpi="90"
     inkscape:export-ydpi="90" /><polygon
     style="fill:#b81c22"
     id="polygon3105"
     points="523.232,792.379 543.119,813.861 569.23,813.861 594.412,800.059 587.713,786.65 565.531,798.895 549.744,798.895 539.236,787.518 539.236,730.34 549.744,718.968 570.445,718.968 579.1,728.295 579.1,745.898 553.006,745.898 553.072,760.87 595.104,760.87 595.104,723.428 577.061,703.995 543.119,703.995 523.232,725.485 "
     inkscape:export-filename="/Users/rngadam/hackacademy/prj/coderbunker/logos/path3125.png"
     inkscape:export-xdpi="90"
     inkscape:export-ydpi="90" /><polygon
     style="fill:#b81c22"
     id="polygon3107"
     points="972.605,737.618 972.605,656.752 956.604,656.752 956.604,813.861 972.605,813.861 972.605,759.536 987.344,743.977 1020.465,816.502 1033.926,810.17 998.521,732.188 1034.246,694.487 1023.396,684.026 "
     inkscape:export-filename="/Users/rngadam/hackacademy/prj/coderbunker/logos/path3125.png"
     inkscape:export-xdpi="90"
     inkscape:export-ydpi="90" /><polygon
     style="fill:#b81c22"
     id="polygon3109"
     points="1033.217,792.379 1053.102,813.861 1079.213,813.861 1104.396,800.059 1097.695,786.65 1075.514,798.895 1059.729,798.895 1049.219,787.518 1049.219,730.34 1059.729,718.968 1080.43,718.968 1089.078,728.295 1089.078,745.898 1062.979,745.898 1063.072,760.87 1105.088,760.87 1105.088,723.428 1087.047,703.995 1053.102,703.995 1033.217,725.485 "
     inkscape:export-filename="/Users/rngadam/hackacademy/prj/coderbunker/logos/path3125.png"
     inkscape:export-xdpi="90"
     inkscape:export-ydpi="90" /><path
     style="fill:#b81c22"
     inkscape:connector-curvature="0"
     id="path3111"
     d="m 374.686,703.995 -8.99,9.867 -6.777,7.311 v 73.671 l 17.633,19.018 h 32.904 l 17.641,-19.018 v -73.886 l -15.785,-16.963 h -36.626 z m 8.486,94.9 -8.252,-8.914 0.008,-63.946 6.535,-7.066 h 23.23 l 6.393,6.864 v 64.148 l -8.25,8.914 h -19.664 z"
     inkscape:export-filename="/Users/rngadam/hackacademy/prj/coderbunker/logos/path3125.png"
     inkscape:export-xdpi="90"
     inkscape:export-ydpi="90" /><polygon
     style="fill:#b81c22"
     id="polygon3113"
     points="868.693,719.017 868.693,813.861 884.695,813.861 884.695,724.205 889.637,718.968 916.725,718.968 925.588,728.499 925.588,813.861 941.588,813.861 941.588,723.63 923.338,703.995 883.033,703.995 876.912,710.613 "
     inkscape:export-filename="/Users/rngadam/hackacademy/prj/coderbunker/logos/path3125.png"
     inkscape:export-xdpi="90"
     inkscape:export-ydpi="90" /><polygon
     style="fill:#b81c22"
     id="polygon3115"
     points="832.1,798.895 805.234,798.895 796.984,789.98 796.984,703.995 780.982,703.995 780.982,794.844 798.615,813.861 838.717,813.861 844.783,807.302 848.912,803.282 854.291,795.591 854.291,703.995 838.293,703.995 838.293,792.396 834.121,796.736 "
     inkscape:export-filename="/Users/rngadam/hackacademy/prj/coderbunker/logos/path3125.png"
     inkscape:export-xdpi="90"
     inkscape:export-ydpi="90" /><path
     style="fill:#b81c22"
     inkscape:connector-curvature="0"
     id="path3117"
     d="m 494.883,713.288 -1.6,-1.584 -7.234,-7.709 h -28.783 l -17.84,19.225 v 71.216 l 18.043,19.426 h 28.162 l 19.816,-10.869 5.256,-2.689 0.188,-8.302 v -135.25 h -16.008 v 56.536 z m -30.795,85.607 -8.662,-9.33 v -61.477 l 8.455,-9.12 h 15.59 l 15.412,16.353 v 56.414 l -12.951,7.16 h -17.844 z"
     inkscape:export-filename="/Users/rngadam/hackacademy/prj/coderbunker/logos/path3125.png"
     inkscape:export-xdpi="90"
     inkscape:export-ydpi="90" /><polygon
     style="fill:#b81c22"
     id="polygon3119"
     points="606.41,719.86 606.41,813.861 622.42,813.861 622.42,725.108 626.373,721.335 628.596,718.968 640.078,718.968 653.162,732.967 664.158,722.759 646.688,703.995 621.986,703.995 615.92,710.559 "
     inkscape:export-filename="/Users/rngadam/hackacademy/prj/coderbunker/logos/path3125.png"
     inkscape:export-xdpi="90"
     inkscape:export-ydpi="90" /><polygon
     style="fill:#b81c22"
     id="polygon3121"
     points="1126.51,710.559 1116.998,719.86 1116.998,813.861 1133.01,813.861 1133.01,725.108 1136.959,721.335 1139.186,718.968 1150.664,718.968 1163.748,732.967 1174.744,722.759 1157.275,703.995 1132.574,703.995 "
     inkscape:export-filename="/Users/rngadam/hackacademy/prj/coderbunker/logos/path3125.png"
     inkscape:export-xdpi="90"
     inkscape:export-ydpi="90" /><path
     style="fill:#b81c22"
     inkscape:connector-curvature="0"
     id="path3123"
     d="m 744.15,715.086 h -0.221 l 3.559,-3.556 v -29.26 l -19.359,-19.354 h -27.814 -7.258 -17.234 v 130.892 l 19.977,20.055 h 47.566 l 27.125,-14.584 v -57.853 l -26.341,-26.34 z m -22.677,-36.171 8.779,8.789 v 18.372 l -9.176,9.01 h -28.02 v -36.169 l 28.417,-0.002 z m 31.787,111.546 -13.947,7.406 h -36.855 l -9.4,-9.406 v -57.377 h 44.438 l 15.766,15.771 v 43.606 z"
     inkscape:export-filename="/Users/rngadam/hackacademy/prj/coderbunker/logos/path3125.png"
     inkscape:export-xdpi="90"
     inkscape:export-ydpi="90" /><path
     style="fill:#b81c22"
     inkscape:connector-curvature="0"
     id="path3125"
     d="m 254.967,723.053 v -15.591 h -23.354 l 13.437,-41.133 -15.306,-4.474 -14.935,45.606 h -21.564 l 13.176,-40.725 -15.298,-4.475 -14.669,45.199 h -28.488 v 15.591 h 23.427 l -9.608,29.598 h -29.63 v 15.589 h 24.568 l -13.366,41.182 15.212,5.19 15.009,-46.372 h 21.329 l -13.553,41.386 15.201,5.19 15.211,-46.576 h 27.385 V 752.65 h -22.292 l 9.664,-29.598 h 28.444 z M 200.01,752.65 h -21.392 l 9.578,-29.598 h 21.508 l -9.694,29.598 z"
     inkscape:export-xdpi="90"
     inkscape:export-ydpi="90" /></svg>